<svg width="728" height="78" viewBox="0 0 728 78" fill="none" xmlns="http://www.w3.org/2000/svg">
<path d="M17.294 39.0474C17.14 37.7014 16.5048 36.6588 15.3885 35.9194C14.2721 35.1706 12.867 34.7962 11.1732 34.7962C9.96063 34.7962 8.91164 34.9858 8.02625 35.3649C7.14086 35.7346 6.45276 36.2464 5.96194 36.9005C5.48075 37.545 5.24016 38.2796 5.24016 39.1043C5.24016 39.7962 5.40376 40.3934 5.73097 40.8957C6.0678 41.3981 6.50569 41.8199 7.04462 42.1611C7.59318 42.4929 8.18023 42.7725 8.80577 43C9.43132 43.218 10.0328 43.3981 10.6102 43.5403L13.4974 44.2796C14.4405 44.5071 15.4077 44.8152 16.3989 45.2038C17.3902 45.5924 18.3093 46.1043 19.1562 46.7393C20.0031 47.3744 20.6864 48.1611 21.206 49.0995C21.7353 50.0379 22 51.1611 22 52.4692C22 54.1185 21.5669 55.5829 20.7008 56.8626C19.8443 58.1422 18.598 59.1517 16.9619 59.891C15.3355 60.6303 13.3675 61 11.0577 61C8.84427 61 6.92913 60.654 5.31234 59.9621C3.69554 59.2701 2.43001 58.2891 1.51575 57.019C0.601487 55.7393 0.0962379 54.2227 0 52.4692H4.47507C4.56168 53.5213 4.90814 54.3981 5.51444 55.0995C6.13036 55.7915 6.9147 56.3081 7.86745 56.6493C8.82983 56.981 9.88364 57.1469 11.0289 57.1469C12.2896 57.1469 13.4108 56.9526 14.3924 56.564C15.3836 56.1659 16.1632 55.6161 16.731 54.9147C17.2988 54.2038 17.5827 53.3744 17.5827 52.4265C17.5827 51.564 17.3325 50.8578 16.832 50.3081C16.3412 49.7583 15.6724 49.3033 14.8255 48.9431C13.9882 48.5829 13.0402 48.2654 11.9816 47.9905L8.48819 47.0521C6.12073 46.4171 4.24409 45.4834 2.85827 44.2512C1.48206 43.019 0.793963 41.3886 0.793963 39.3602C0.793963 37.6825 1.25591 36.218 2.17979 34.9668C3.10367 33.7156 4.35477 32.7441 5.93307 32.0521C7.51137 31.3507 9.29178 31 11.2743 31C13.276 31 15.042 31.346 16.5722 32.0379C18.112 32.7299 19.3246 33.6825 20.21 34.8957C21.0954 36.0995 21.5573 37.4834 21.5958 39.0474H17.294Z" fill="black"/>
<path d="M75 34.8965V31H97V34.8965H88.1306V61H83.8555V34.8965H75Z" fill="black"/>
<path d="M153.658 61H149L159.465 31H164.535L175 61H170.342L162.121 36.4492H161.894L153.658 61Z" fill="black"/>
<path d="M228 61V31H238.587C240.888 31 242.797 31.4004 244.315 32.2012C245.843 33.002 246.984 34.1104 247.738 35.5264C248.492 36.9326 248.869 38.5586 248.869 40.4043C248.869 42.2402 248.487 43.8564 247.723 45.2529C246.969 46.6396 245.828 47.7188 244.301 48.4902C242.783 49.2617 240.873 49.6475 238.572 49.6475H230.552V45.751H238.166C239.616 45.751 240.796 45.541 241.705 45.1211C242.623 44.7012 243.295 44.0908 243.72 43.29C244.146 42.4893 244.359 41.5273 244.359 40.4043C244.359 39.2715 244.141 38.29 243.706 37.46C243.281 36.6299 242.609 35.9951 241.69 35.5557C240.781 35.1064 239.587 34.8818 238.108 34.8818H232.481V61H228ZM242.662 47.4648L250 61H244.895L237.702 47.4648H242.662Z" fill="black"/>
<path d="M478 31H483.414L492.827 54.3203H493.173L502.586 31H508V61H503.756V39.291H503.481L494.761 60.9561H491.239L482.519 39.2764H482.244V61H478V31Z" fill="black"/>
<path d="M582 46C582 49.1179 581.436 51.7985 580.309 54.0418C579.182 56.2757 577.636 57.9962 575.673 59.2034C573.719 60.4011 571.497 61 569.007 61C566.508 61 564.277 60.4011 562.313 59.2034C560.359 57.9962 558.818 56.2709 557.691 54.0276C556.564 51.7842 556 49.1084 556 46C556 42.8821 556.564 40.2063 557.691 37.9724C558.818 35.7291 560.359 34.0086 562.313 32.8108C564.277 31.6036 566.508 31 569.007 31C571.497 31 573.719 31.6036 575.673 32.8108C577.636 34.0086 579.182 35.7291 580.309 37.9724C581.436 40.2063 582 42.8821 582 46ZM577.688 46C577.688 43.6236 577.307 41.6226 576.546 39.9971C575.795 38.3622 574.761 37.1264 573.446 36.2899C572.14 35.4439 570.661 35.0209 569.007 35.0209C567.344 35.0209 565.86 35.4439 564.554 36.2899C563.248 37.1264 562.215 38.3622 561.454 39.9971C560.702 41.6226 560.326 43.6236 560.326 46C560.326 48.3764 560.702 50.3821 561.454 52.0171C562.215 53.6426 563.248 54.8783 564.554 55.7243C565.86 56.5608 567.344 56.9791 569.007 56.9791C570.661 56.9791 572.14 56.5608 573.446 55.7243C574.761 54.8783 575.795 53.6426 576.546 52.0171C577.307 50.3821 577.688 48.3764 577.688 46Z" fill="black"/>
<path d="M639.655 61H630V31H639.961C642.883 31 645.393 31.6006 647.49 32.8018C649.587 33.9932 651.194 35.707 652.311 37.9434C653.437 40.1699 654 42.8408 654 45.9561C654 49.0811 653.432 51.7666 652.296 54.0127C651.17 56.2588 649.539 57.9873 647.403 59.1982C645.267 60.3994 642.684 61 639.655 61ZM634.5 57.0449H639.408C641.68 57.0449 643.568 56.6152 645.073 55.7559C646.578 54.8867 647.704 53.6318 648.451 51.9912C649.199 50.3408 649.573 48.3291 649.573 45.9561C649.573 43.6025 649.199 41.6055 648.451 39.9648C647.714 38.3242 646.612 37.0791 645.146 36.2295C643.68 35.3799 641.859 34.9551 639.684 34.9551H634.5V57.0449Z" fill="black"/>
<path d="M702 61V31H728V34.8965H702V44.0371H726.415V47.9189H702V57.1035H728V61H702Z" fill="black"/>
<path d="M360.22 4.72517C361.41 1.09161 366.59 1.09161 367.78 4.72517L374.262 24.5206C374.794 26.1456 376.32 27.2458 378.042 27.2458H399.018C402.868 27.2458 404.469 32.1347 401.354 34.3804L384.384 46.6146C382.991 47.6189 382.408 49.3991 382.94 51.024L389.422 70.8195C390.612 74.453 386.421 77.4746 383.306 75.2289L366.336 62.9946C364.943 61.9903 363.057 61.9903 361.664 62.9946L344.694 75.2289C341.579 77.4746 337.388 74.453 338.578 70.8195L345.06 51.024C345.592 49.3991 345.009 47.6189 343.616 46.6146L326.646 34.3804C323.531 32.1347 325.132 27.2458 328.982 27.2458H349.958C351.68 27.2458 353.206 26.1456 353.738 24.5206L360.22 4.72517Z" fill="black"/>
</svg>
